<?xml version="1.0" encoding="iso-8859-1"?>
<!-- Generator: Adobe Illustrator 18.0.0, SVG Export Plug-In . SVG Version: 6.00 Build 0)  -->
<!DOCTYPE svg PUBLIC "-//W3C//DTD SVG 1.1//EN" "http://www.w3.org/Graphics/SVG/1.1/DTD/svg11.dtd">
<svg version="1.1" id="Capa_1" xmlns="http://www.w3.org/2000/svg" xmlns:xlink="http://www.w3.org/1999/xlink" x="0px" y="0px"
	 viewBox="0 0 228.407 228.407" style="enable-background:new 0 0 228.407 228.407;" xml:space="preserve">
<path d="M184.833,90.052c-10.192-29.553-38.173-49.75-69.857-49.75c-26.002,0-49.832,13.534-63.203,35.606
	C22.846,78.164,0,102.424,0,131.919c0,30.98,25.205,56.186,56.241,56.186h122.978c27.122,0,49.188-22.066,49.188-49.188
	C228.407,113.703,209.337,92.861,184.833,90.052z M179.219,173.105H56.185c-22.71,0-41.185-18.476-41.185-41.186
	c0-22.645,18.372-41.08,40.995-41.184l4.762,0.002l2.111-3.996c10.245-19.393,30.212-31.44,52.108-31.44
	c26.727,0,50.147,18.027,56.953,43.84l1.512,5.588h5.779c18.851,0,34.188,15.337,34.188,34.188S198.07,173.105,179.219,173.105z"/>
<g>
</g>
<g>
</g>
<g>
</g>
<g>
</g>
<g>
</g>
<g>
</g>
<g>
</g>
<g>
</g>
<g>
</g>
<g>
</g>
<g>
</g>
<g>
</g>
<g>
</g>
<g>
</g>
<g>
</g>
</svg>
