<?xml version="1.0" encoding="iso-8859-1"?>
<svg version="1.1" xmlns="http://www.w3.org/2000/svg" xmlns:xlink="http://www.w3.org/1999/xlink"
	 x="0px" y="0px"
	 viewBox="0 0 612.116 612.116" style="enable-background:new 0 0 612.116 612.116;" xml:space="preserve">
<g>
	<path d="M611.385,359.645c-6.012-52.084-46.071-88.367-98.155-89.836c-1.538,0-3.006,0-4.544,0
		c-0.769-1.538-0.769-3.006-1.538-4.544c-12.095-39.989-43.764-64.947-83.054-64.947c-13.563,0-27.195,3.006-40.758,9.088
		c-1.538,0.769-3.775,1.538-5.313,2.237c-0.769-1.538-2.237-3.006-3.775-4.544c-31.74-40.758-79.279-64.178-129.894-64.178
		c-40.758,0-79.279,15.101-109.48,43.065c-30.971,28.663-49.077,64.947-52.853,107.243c0,2.237,0,4.544,0,6.781c0,0,0,0.769,0,1.538
		c-0.769,0-0.769,0-1.538,0c-2.237,0-4.544,0-6.012,0.769c-23.42,3.006-42.296,12.864-55.859,30.202
		c-20.414,26.426-24.189,56.628-10.557,87.598c14.332,31.74,41.527,49.077,77.042,49.077c30.202,0,61.172,0,91.374,0h216.724
		c39.989,0,80.048,0,120.037,0c9.088,0,16.639-0.769,24.189-3.006C584.959,454.793,617.467,407.953,611.385,359.645z
		 M530.638,439.693c-5.313,1.538-11.326,1.538-17.338,2.237c-39.989,0-80.048,0-120.037,0h-92.912H176.539
		c-30.202,0-61.172,0-91.374,0c-24.189,0-41.527-11.326-51.315-33.208c-9.788-21.113-6.781-39.989,8.319-58.865
		c9.088-11.326,21.113-17.338,37.752-19.645c1.538,0,3.006,0,3.775,0c6.781,0,15.101-0.769,21.882-7.55
		c6.012-6.781,6.012-15.101,6.012-21.882c0-1.538,0-3.006,0-4.544c3.006-35.515,17.338-64.947,43.764-89.066
		c24.888-23.42,57.397-35.515,90.605-35.515c42.296,0,81.516,19.645,107.942,53.622c6.781,9.088,12.864,16.639,23.42,16.639
		c6.012,0,10.557-2.237,18.876-6.012c9.788-4.544,19.645-6.781,29.432-6.781c26.426,0,47.539,17.338,56.628,45.302
		c6.012,19.645,11.326,24.189,32.439,24.189c37.752,0.769,65.716,26.426,70.191,64.947
		C588.035,397.397,564.615,431.373,530.638,439.693z"/>
</g>
<g>
</g>
<g>
</g>
<g>
</g>
<g>
</g>
<g>
</g>
<g>
</g>
<g>
</g>
<g>
</g>
<g>
</g>
<g>
</g>
<g>
</g>
<g>
</g>
<g>
</g>
<g>
</g>
<g>
</g>
</svg>
